<svg width="148" height="74" viewBox="0 0 148 74" fill="none" xmlns="http://www.w3.org/2000/svg">
<rect x="0.5" y="1.41809" width="147" height="72" rx="9.5" fill="#6D5CFB" fill-opacity="0.04" stroke="#4C80FF" stroke-miterlimit="5.75877"/>
<path d="M65.0312 30.3751L62.9707 29.8771L63.7617 22.6993H71.584V24.838H65.9004L65.5293 28.1583C65.7311 28.0346 66.0241 27.9109 66.4082 27.7872C66.7988 27.657 67.2383 27.5919 67.7266 27.5919C68.4036 27.5919 69.0091 27.7026 69.543 27.924C70.0768 28.1388 70.5293 28.4513 70.9004 28.8615C71.278 29.2716 71.5612 29.7729 71.75 30.3654C71.9453 30.9513 72.043 31.6154 72.043 32.3575C72.043 33.0086 71.9453 33.6206 71.75 34.1935C71.5612 34.7599 71.2715 35.2644 70.8809 35.7072C70.4902 36.1434 69.9987 36.4884 69.4062 36.7423C68.8138 36.9897 68.1172 37.1134 67.3164 37.1134C66.7109 37.1134 66.1283 37.0255 65.5684 36.8497C65.015 36.6674 64.5169 36.4038 64.0742 36.0587C63.6315 35.7072 63.2767 35.2775 63.0098 34.7697C62.7493 34.2618 62.6061 33.6792 62.5801 33.0216H65.1289C65.1745 33.4578 65.2917 33.8289 65.4805 34.1349C65.6693 34.4409 65.9167 34.6753 66.2227 34.838C66.5352 35.0008 66.8965 35.0822 67.3066 35.0822C67.6777 35.0822 67.9967 35.0138 68.2637 34.8771C68.5371 34.7338 68.7617 34.5353 68.9375 34.2814C69.1133 34.0275 69.2435 33.728 69.3281 33.3829C69.4128 33.0379 69.4551 32.6603 69.4551 32.2501C69.4551 31.853 69.4062 31.4917 69.3086 31.1661C69.2109 30.8341 69.0612 30.5476 68.8594 30.3068C68.6576 30.0659 68.4036 29.8803 68.0977 29.7501C67.7982 29.6199 67.4466 29.5548 67.043 29.5548C66.5026 29.5548 66.0859 29.6362 65.793 29.799C65.5065 29.9617 65.2526 30.1538 65.0312 30.3751ZM83.3125 28.588V30.9806C83.3125 32.0743 83.2018 33.0086 82.9805 33.7833C82.7591 34.5581 82.4401 35.1928 82.0234 35.6876C81.6068 36.1759 81.1087 36.5372 80.5293 36.7716C79.9499 36.9995 79.3053 37.1134 78.5957 37.1134C78.0293 37.1134 77.502 37.0418 77.0137 36.8986C76.5254 36.7488 76.0859 36.521 75.6953 36.215C75.3112 35.9025 74.9792 35.5053 74.6992 35.0236C74.4258 34.5418 74.2142 33.9656 74.0645 33.295C73.9212 32.6245 73.8496 31.853 73.8496 30.9806V28.588C73.8496 27.4943 73.9603 26.5633 74.1816 25.795C74.4095 25.0268 74.7318 24.3986 75.1484 23.9103C75.5651 23.422 76.0632 23.0672 76.6426 22.8458C77.222 22.618 77.8665 22.504 78.5762 22.504C79.1491 22.504 79.6764 22.5756 80.1582 22.7189C80.6465 22.8621 81.0827 23.0867 81.4668 23.3927C81.8574 23.6922 82.1895 24.0828 82.4629 24.5646C82.7363 25.0398 82.9447 25.6128 83.0879 26.2833C83.2376 26.9474 83.3125 27.7156 83.3125 28.588ZM80.7344 31.3322V28.2267C80.7344 27.6798 80.7018 27.2045 80.6367 26.8009C80.5781 26.3907 80.4902 26.0424 80.373 25.756C80.2559 25.4695 80.1094 25.2384 79.9336 25.0626C79.7578 24.8803 79.556 24.7469 79.3281 24.6622C79.1003 24.5776 78.8496 24.5353 78.5762 24.5353C78.2376 24.5353 77.9349 24.6036 77.668 24.7404C77.401 24.8706 77.1764 25.0789 76.9941 25.3654C76.8118 25.6518 76.6719 26.0327 76.5742 26.5079C76.4831 26.9767 76.4375 27.5496 76.4375 28.2267V31.3322C76.4375 31.879 76.4668 32.3575 76.5254 32.7677C76.5905 33.1779 76.6816 33.5294 76.7988 33.8224C76.9225 34.1154 77.069 34.3562 77.2383 34.545C77.4141 34.7273 77.6159 34.8641 77.8438 34.9552C78.0716 35.0398 78.3223 35.0822 78.5957 35.0822C78.9408 35.0822 79.2435 35.0138 79.5039 34.8771C79.7708 34.7404 79.9954 34.5255 80.1777 34.2325C80.36 33.9331 80.4967 33.5457 80.5879 33.0704C80.6855 32.5887 80.7344 32.0092 80.7344 31.3322ZM94.7383 28.588V30.9806C94.7383 32.0743 94.6276 33.0086 94.4062 33.7833C94.1849 34.5581 93.8659 35.1928 93.4492 35.6876C93.0326 36.1759 92.5345 36.5372 91.9551 36.7716C91.3757 36.9995 90.7311 37.1134 90.0215 37.1134C89.4551 37.1134 88.9277 37.0418 88.4395 36.8986C87.9512 36.7488 87.5117 36.521 87.1211 36.215C86.737 35.9025 86.4049 35.5053 86.125 35.0236C85.8516 34.5418 85.64 33.9656 85.4902 33.295C85.347 32.6245 85.2754 31.853 85.2754 30.9806V28.588C85.2754 27.4943 85.3861 26.5633 85.6074 25.795C85.8353 25.0268 86.1576 24.3986 86.5742 23.9103C86.9909 23.422 87.4889 23.0672 88.0684 22.8458C88.6478 22.618 89.2923 22.504 90.002 22.504C90.5749 22.504 91.1022 22.5756 91.584 22.7189C92.0723 22.8621 92.5085 23.0867 92.8926 23.3927C93.2832 23.6922 93.6152 24.0828 93.8887 24.5646C94.1621 25.0398 94.3704 25.6128 94.5137 26.2833C94.6634 26.9474 94.7383 27.7156 94.7383 28.588ZM92.1602 31.3322V28.2267C92.1602 27.6798 92.1276 27.2045 92.0625 26.8009C92.0039 26.3907 91.916 26.0424 91.7988 25.756C91.6816 25.4695 91.5352 25.2384 91.3594 25.0626C91.1836 24.8803 90.9818 24.7469 90.7539 24.6622C90.526 24.5776 90.2754 24.5353 90.002 24.5353C89.6634 24.5353 89.3607 24.6036 89.0938 24.7404C88.8268 24.8706 88.6022 25.0789 88.4199 25.3654C88.2376 25.6518 88.0977 26.0327 88 26.5079C87.9089 26.9767 87.8633 27.5496 87.8633 28.2267V31.3322C87.8633 31.879 87.8926 32.3575 87.9512 32.7677C88.0163 33.1779 88.1074 33.5294 88.2246 33.8224C88.3483 34.1154 88.4948 34.3562 88.6641 34.545C88.8398 34.7273 89.0417 34.8641 89.2695 34.9552C89.4974 35.0398 89.748 35.0822 90.0215 35.0822C90.3665 35.0822 90.6693 35.0138 90.9297 34.8771C91.1966 34.7404 91.4212 34.5255 91.6035 34.2325C91.7858 33.9331 91.9225 33.5457 92.0137 33.0704C92.1113 32.5887 92.1602 32.0092 92.1602 31.3322Z" fill="#4C80FF"/>
<path d="M57.0386 26.5849C56.6702 25.7982 55.8809 25.2515 54.96 25.2515H52V23.9182H59.8933V25.2515H57.749C58.0647 25.6382 58.3015 26.0915 58.4396 26.5849H59.8933V27.9182H58.5646C58.4002 29.7849 56.8478 31.2515 54.96 31.2515H54.4798L58.9067 35.9182H57.0846L52.6578 31.2515V29.9182H54.96C56.1177 29.9182 57.078 29.0515 57.2359 27.9182H52V26.5849H57.0386Z" fill="#4C80FF"/>
<path d="M31.2666 56.4415V57.9181H26.2627V56.4415H31.2666ZM26.8301 47.965V57.9181H24.9502V47.965H26.8301ZM32.0664 54.295V54.1515C32.0664 53.6092 32.1439 53.1101 32.2988 52.6544C32.4538 52.1941 32.6794 51.7954 32.9756 51.4581C33.2718 51.1209 33.6341 50.8588 34.0625 50.672C34.4909 50.4806 34.9785 50.3849 35.5254 50.3849C36.0814 50.3849 36.5736 50.4806 37.002 50.672C37.4349 50.8588 37.7995 51.1209 38.0957 51.4581C38.3919 51.7954 38.6175 52.1941 38.7725 52.6544C38.9274 53.1101 39.0049 53.6092 39.0049 54.1515V54.295C39.0049 54.8328 38.9274 55.3318 38.7725 55.7921C38.6175 56.2478 38.3919 56.6466 38.0957 56.9884C37.7995 57.3256 37.4372 57.5877 37.0088 57.7745C36.5804 57.9614 36.0905 58.0548 35.5391 58.0548C34.9922 58.0548 34.5023 57.9614 34.0693 57.7745C33.6364 57.5877 33.2718 57.3256 32.9756 56.9884C32.6794 56.6466 32.4538 56.2478 32.2988 55.7921C32.1439 55.3318 32.0664 54.8328 32.0664 54.295ZM33.8711 54.1515V54.295C33.8711 54.6186 33.903 54.9217 33.9668 55.2042C34.0306 55.4868 34.1286 55.7351 34.2607 55.9493C34.3929 56.1635 34.5638 56.3322 34.7734 56.4552C34.9876 56.5737 35.2428 56.6329 35.5391 56.6329C35.8307 56.6329 36.0814 56.5737 36.291 56.4552C36.5007 56.3322 36.6715 56.1635 36.8037 55.9493C36.9404 55.7351 37.0407 55.4868 37.1045 55.2042C37.1683 54.9217 37.2002 54.6186 37.2002 54.295V54.1515C37.2002 53.8325 37.1683 53.534 37.1045 53.256C37.0407 52.9734 36.9404 52.7251 36.8037 52.5109C36.6715 52.2921 36.4984 52.1212 36.2842 51.9982C36.0745 51.8706 35.8216 51.8068 35.5254 51.8068C35.2337 51.8068 34.9831 51.8706 34.7734 51.9982C34.5638 52.1212 34.3929 52.2921 34.2607 52.5109C34.1286 52.7251 34.0306 52.9734 33.9668 53.256C33.903 53.534 33.8711 53.8325 33.8711 54.1515ZM43.3525 56.6329C43.6077 56.6329 43.8356 56.5828 44.0361 56.4825C44.2367 56.3823 44.3962 56.241 44.5146 56.0587C44.6377 55.8764 44.7038 55.6645 44.7129 55.423H46.415C46.4059 55.9243 46.2646 56.3732 45.9912 56.7697C45.7178 57.1661 45.3532 57.4806 44.8975 57.713C44.4463 57.9409 43.9404 58.0548 43.3799 58.0548C42.8102 58.0548 42.3135 57.9591 41.8896 57.7677C41.4658 57.5763 41.1126 57.3097 40.8301 56.9679C40.5521 56.6261 40.3424 56.2296 40.2012 55.7784C40.0645 55.3273 39.9961 54.8442 39.9961 54.3292V54.1105C39.9961 53.5955 40.0645 53.1124 40.2012 52.6613C40.3424 52.2101 40.5521 51.8136 40.8301 51.4718C41.1126 51.13 41.4658 50.8634 41.8896 50.672C42.3135 50.4806 42.8079 50.3849 43.373 50.3849C43.9701 50.3849 44.4941 50.5011 44.9453 50.7335C45.401 50.9659 45.7565 51.2941 46.0117 51.7179C46.2715 52.1417 46.4059 52.6407 46.415 53.215H44.7129C44.7038 52.9506 44.6445 52.7137 44.5352 52.504C44.4258 52.2944 44.2708 52.1258 44.0703 51.9982C43.8698 51.8706 43.626 51.8068 43.3389 51.8068C43.0335 51.8068 42.7783 51.8706 42.5732 51.9982C42.3727 52.1258 42.2155 52.3012 42.1016 52.5245C41.9922 52.7433 41.9147 52.9894 41.8691 53.2628C41.8281 53.5317 41.8076 53.8142 41.8076 54.1105V54.3292C41.8076 54.63 41.8281 54.9171 41.8691 55.1906C41.9147 55.464 41.9922 55.7101 42.1016 55.9288C42.2155 56.143 42.3727 56.3139 42.5732 56.4415C42.7783 56.5691 43.0381 56.6329 43.3525 56.6329ZM49.4229 47.4113V57.9181H47.6182V47.4113H49.4229ZM54.0576 50.5216L50.8379 54.1378L49.0947 55.9083L48.5205 54.507L49.8672 52.8116L51.877 50.5216H54.0576ZM52.2119 57.9181L49.9219 54.4728L51.125 53.3038L54.3037 57.9181H52.2119ZM58.2002 58.0548C57.6396 58.0548 57.1361 57.9637 56.6895 57.7814C56.2428 57.5991 55.8623 57.3462 55.5479 57.0226C55.238 56.6945 54.9987 56.3139 54.8301 55.881C54.666 55.4435 54.584 54.9741 54.584 54.4728V54.1993C54.584 53.6297 54.666 53.1124 54.8301 52.6476C54.9941 52.1782 55.2266 51.7749 55.5273 51.4376C55.8281 51.1004 56.1882 50.8406 56.6074 50.6583C57.0267 50.476 57.4893 50.3849 57.9951 50.3849C58.5192 50.3849 58.9818 50.4738 59.3828 50.6515C59.7839 50.8247 60.1188 51.0708 60.3877 51.3898C60.6566 51.7088 60.8594 52.0916 60.9961 52.5382C61.1328 52.9803 61.2012 53.4702 61.2012 54.0079V54.7667H55.4043V53.5226H59.4238V53.3859C59.4147 53.0988 59.36 52.8367 59.2598 52.5997C59.1595 52.3582 59.0046 52.1668 58.7949 52.0255C58.5853 51.8797 58.3141 51.8068 57.9814 51.8068C57.7126 51.8068 57.4779 51.866 57.2773 51.9845C57.0814 52.0984 56.9173 52.2625 56.7852 52.4767C56.6576 52.6863 56.5618 52.937 56.498 53.2286C56.4342 53.5203 56.4023 53.8439 56.4023 54.1993V54.4728C56.4023 54.7827 56.4434 55.0698 56.5254 55.3341C56.612 55.5984 56.7373 55.8286 56.9014 56.0245C57.07 56.2159 57.2705 56.3663 57.5029 56.4757C57.7399 56.5805 58.0088 56.6329 58.3096 56.6329C58.6878 56.6329 59.0296 56.56 59.335 56.4142C59.6449 56.2638 59.9137 56.0428 60.1416 55.7511L61.0508 56.6945C60.8958 56.9223 60.6862 57.1411 60.4219 57.3507C60.1621 57.5603 59.8477 57.7312 59.4785 57.8634C59.1094 57.991 58.6833 58.0548 58.2002 58.0548ZM66.8477 56.3458V47.4181H68.666V57.9181H67.0254L66.8477 56.3458ZM62.0967 54.3087V54.1652C62.0967 53.6001 62.1605 53.0874 62.2881 52.6271C62.4202 52.1622 62.6117 51.7635 62.8623 51.4308C63.113 51.0981 63.416 50.8406 63.7715 50.6583C64.1315 50.476 64.5394 50.3849 64.9951 50.3849C65.4372 50.3849 65.8223 50.4738 66.1504 50.6515C66.4831 50.8292 66.7656 51.0822 66.998 51.4103C67.235 51.7384 67.4242 52.1281 67.5654 52.5792C67.7067 53.0258 67.8092 53.518 67.873 54.0558V54.4454C67.8092 54.9695 67.7067 55.4503 67.5654 55.8878C67.4242 56.3253 67.235 56.7081 66.998 57.0363C66.7656 57.3598 66.4831 57.6105 66.1504 57.7882C65.8177 57.9659 65.4281 58.0548 64.9814 58.0548C64.5303 58.0548 64.1247 57.9614 63.7646 57.7745C63.4092 57.5877 63.1061 57.3256 62.8555 56.9884C62.6094 56.6512 62.4202 56.2547 62.2881 55.799C62.1605 55.3432 62.0967 54.8465 62.0967 54.3087ZM63.9082 54.1652V54.3087C63.9082 54.6277 63.9355 54.9262 63.9902 55.2042C64.0449 55.4822 64.1338 55.7283 64.2568 55.9425C64.3799 56.1521 64.5371 56.3162 64.7285 56.4347C64.9245 56.5532 65.1615 56.6124 65.4395 56.6124C65.7949 56.6124 66.0866 56.535 66.3145 56.38C66.5469 56.2205 66.7269 56.004 66.8545 55.7306C66.9821 55.4526 67.0641 55.1404 67.1006 54.7941V53.7208C67.0824 53.4474 67.0345 53.1945 66.957 52.962C66.8841 52.7296 66.7793 52.5291 66.6426 52.3605C66.5104 52.1919 66.3464 52.0597 66.1504 51.964C65.9544 51.8683 65.722 51.8204 65.4531 51.8204C65.1751 51.8204 64.9382 51.882 64.7422 52.005C64.5462 52.1235 64.3867 52.2898 64.2637 52.504C64.1406 52.7182 64.0495 52.9666 63.9902 53.2491C63.9355 53.5317 63.9082 53.837 63.9082 54.1652ZM77.8604 56.3458V52.9347C77.8604 52.684 77.8171 52.4676 77.7305 52.2853C77.6439 52.103 77.5117 51.9617 77.334 51.8615C77.1562 51.7612 76.9307 51.7111 76.6572 51.7111C76.4157 51.7111 76.2038 51.7521 76.0215 51.8341C75.8438 51.9161 75.707 52.0323 75.6113 52.1827C75.5156 52.3286 75.4678 52.4972 75.4678 52.6886H73.6562C73.6562 52.3833 73.7292 52.0939 73.875 51.8204C74.0208 51.5424 74.2282 51.2963 74.4971 51.0822C74.7705 50.8634 75.0964 50.6925 75.4746 50.5695C75.8574 50.4464 76.2858 50.3849 76.7598 50.3849C77.3203 50.3849 77.8193 50.4806 78.2568 50.672C78.6989 50.8588 79.0452 51.1414 79.2959 51.5197C79.5511 51.8979 79.6787 52.3741 79.6787 52.9484V56.1749C79.6787 56.5441 79.7015 56.8608 79.7471 57.1251C79.7972 57.3849 79.8701 57.6105 79.9658 57.8019V57.9181H78.127C78.0404 57.7312 77.9743 57.4943 77.9287 57.2072C77.8831 56.9155 77.8604 56.6284 77.8604 56.3458ZM78.1133 53.4132L78.127 54.4865H76.9854C76.7028 54.4865 76.4544 54.5161 76.2402 54.5753C76.026 54.63 75.8506 54.712 75.7139 54.8214C75.5771 54.9262 75.4746 55.0538 75.4062 55.2042C75.3379 55.3501 75.3037 55.5164 75.3037 55.7032C75.3037 55.8855 75.3447 56.0496 75.4268 56.1954C75.5133 56.3413 75.6364 56.4575 75.7959 56.5441C75.96 56.6261 76.1514 56.6671 76.3701 56.6671C76.6891 56.6671 76.9671 56.6033 77.2041 56.4757C77.4411 56.3435 77.6257 56.184 77.7578 55.9972C77.89 55.8103 77.9606 55.6326 77.9697 55.464L78.4893 56.2433C78.4255 56.4301 78.3298 56.6284 78.2021 56.838C78.0745 57.0476 77.9105 57.2436 77.71 57.4259C77.5094 57.6082 77.2679 57.7586 76.9854 57.8771C76.7028 57.9956 76.3747 58.0548 76.001 58.0548C75.5225 58.0548 75.0941 57.9591 74.7158 57.7677C74.3376 57.5763 74.0391 57.3142 73.8203 56.9816C73.6016 56.6489 73.4922 56.2706 73.4922 55.8468C73.4922 55.4549 73.5651 55.1085 73.7109 54.8077C73.8568 54.507 74.0732 54.254 74.3604 54.049C74.6475 53.8393 75.0029 53.6821 75.4268 53.5773C75.8551 53.4679 76.3451 53.4132 76.8965 53.4132H78.1133ZM83.1035 52.0392V57.9181H81.2988V50.5216H83.001L83.1035 52.0392ZM82.8369 53.9532H82.2832C82.2832 53.4383 82.3447 52.9643 82.4678 52.5314C82.5954 52.0984 82.7822 51.7225 83.0283 51.4034C83.2744 51.0799 83.5775 50.8292 83.9375 50.6515C84.3021 50.4738 84.7236 50.3849 85.2021 50.3849C85.5348 50.3849 85.8402 50.435 86.1182 50.5353C86.3962 50.631 86.6354 50.7837 86.8359 50.9933C87.041 51.1984 87.1982 51.4672 87.3076 51.7999C87.417 52.1281 87.4717 52.5223 87.4717 52.9825V57.9181H85.667V53.1671C85.667 52.8208 85.6169 52.5496 85.5166 52.3536C85.4209 52.1577 85.2819 52.021 85.0996 51.9435C84.9173 51.8615 84.6986 51.8204 84.4434 51.8204C84.1608 51.8204 83.917 51.8774 83.7119 51.9913C83.5114 52.1007 83.3451 52.2534 83.2129 52.4493C83.0853 52.6453 82.9896 52.8709 82.9258 53.1261C82.8665 53.3813 82.8369 53.657 82.8369 53.9532ZM87.335 53.6183L86.5898 53.755C86.5944 53.2902 86.6582 52.8549 86.7812 52.4493C86.9043 52.0392 87.0843 51.6814 87.3213 51.3761C87.5628 51.0662 87.8613 50.8247 88.2168 50.6515C88.5768 50.4738 88.9915 50.3849 89.4609 50.3849C89.8255 50.3849 90.1536 50.4373 90.4453 50.5421C90.7415 50.6424 90.9945 50.8042 91.2041 51.0275C91.4137 51.2462 91.5732 51.531 91.6826 51.882C91.7965 52.2329 91.8535 52.6613 91.8535 53.1671V57.9181H90.0352V53.1603C90.0352 52.8003 89.985 52.5245 89.8848 52.3331C89.7891 52.1417 89.6501 52.0096 89.4678 51.9366C89.2855 51.8592 89.0713 51.8204 88.8252 51.8204C88.5745 51.8204 88.3558 51.8683 88.1689 51.964C87.9867 52.0551 87.8317 52.1827 87.7041 52.3468C87.5811 52.5109 87.4876 52.7023 87.4238 52.921C87.3646 53.1352 87.335 53.3676 87.335 53.6183ZM93.1523 54.295V54.1515C93.1523 53.6092 93.2298 53.1101 93.3848 52.6544C93.5397 52.1941 93.7653 51.7954 94.0615 51.4581C94.3577 51.1209 94.7201 50.8588 95.1484 50.672C95.5768 50.4806 96.0645 50.3849 96.6113 50.3849C97.1673 50.3849 97.6595 50.4806 98.0879 50.672C98.5208 50.8588 98.8854 51.1209 99.1816 51.4581C99.4779 51.7954 99.7035 52.1941 99.8584 52.6544C100.013 53.1101 100.091 53.6092 100.091 54.1515V54.295C100.091 54.8328 100.013 55.3318 99.8584 55.7921C99.7035 56.2478 99.4779 56.6466 99.1816 56.9884C98.8854 57.3256 98.5231 57.5877 98.0947 57.7745C97.6663 57.9614 97.1764 58.0548 96.625 58.0548C96.0781 58.0548 95.5882 57.9614 95.1553 57.7745C94.7223 57.5877 94.3577 57.3256 94.0615 56.9884C93.7653 56.6466 93.5397 56.2478 93.3848 55.7921C93.2298 55.3318 93.1523 54.8328 93.1523 54.295ZM94.957 54.1515V54.295C94.957 54.6186 94.9889 54.9217 95.0527 55.2042C95.1165 55.4868 95.2145 55.7351 95.3467 55.9493C95.4788 56.1635 95.6497 56.3322 95.8594 56.4552C96.0736 56.5737 96.3288 56.6329 96.625 56.6329C96.9167 56.6329 97.1673 56.5737 97.377 56.4552C97.5866 56.3322 97.7575 56.1635 97.8896 55.9493C98.0264 55.7351 98.1266 55.4868 98.1904 55.2042C98.2542 54.9217 98.2861 54.6186 98.2861 54.295V54.1515C98.2861 53.8325 98.2542 53.534 98.1904 53.256C98.1266 52.9734 98.0264 52.7251 97.8896 52.5109C97.7575 52.2921 97.5843 52.1212 97.3701 51.9982C97.1605 51.8706 96.9076 51.8068 96.6113 51.8068C96.3197 51.8068 96.069 51.8706 95.8594 51.9982C95.6497 52.1212 95.4788 52.2921 95.3467 52.5109C95.2145 52.7251 95.1165 52.9734 95.0527 53.256C94.9889 53.534 94.957 53.8325 94.957 54.1515ZM105.806 56.1613V50.5216H107.624V57.9181H105.915L105.806 56.1613ZM106.038 54.63L106.599 54.6163C106.599 55.1131 106.544 55.5711 106.435 55.9904C106.325 56.4096 106.154 56.7742 105.922 57.0841C105.694 57.3894 105.405 57.6287 105.054 57.8019C104.703 57.9705 104.288 58.0548 103.81 58.0548C103.445 58.0548 103.112 58.0047 102.812 57.9044C102.511 57.7996 102.251 57.6378 102.032 57.4191C101.818 57.1958 101.652 56.9109 101.533 56.5646C101.415 56.2137 101.355 55.7921 101.355 55.2999V50.5216H103.16V55.3136C103.16 55.5597 103.188 55.7648 103.242 55.9288C103.301 56.0929 103.381 56.2273 103.481 56.3322C103.586 56.4324 103.707 56.5053 103.844 56.5509C103.985 56.5919 104.135 56.6124 104.295 56.6124C104.732 56.6124 105.076 56.5258 105.327 56.3527C105.582 56.1749 105.765 55.9379 105.874 55.6417C105.983 55.3409 106.038 55.0037 106.038 54.63ZM110.994 52.1007V57.9181H109.189V50.5216H110.885L110.994 52.1007ZM110.707 53.9532H110.174C110.178 53.4155 110.251 52.9279 110.393 52.4904C110.534 52.0529 110.732 51.6769 110.987 51.3624C111.247 51.048 111.555 50.8064 111.91 50.6378C112.266 50.4692 112.662 50.3849 113.1 50.3849C113.455 50.3849 113.776 50.435 114.063 50.5353C114.351 50.6355 114.597 50.795 114.802 51.0138C115.011 51.2325 115.171 51.5197 115.28 51.8751C115.394 52.226 115.451 52.659 115.451 53.174V57.9181H113.633V53.1603C113.633 52.823 113.583 52.5564 113.482 52.3605C113.387 52.1645 113.245 52.0255 113.059 51.9435C112.876 51.8615 112.651 51.8204 112.382 51.8204C112.104 51.8204 111.86 51.8774 111.65 51.9913C111.445 52.1007 111.272 52.2534 111.131 52.4493C110.994 52.6453 110.889 52.8709 110.816 53.1261C110.743 53.3813 110.707 53.657 110.707 53.9532ZM120.544 50.5216V51.8204H116.306V50.5216H120.544ZM117.44 48.7032H119.252V55.7853C119.252 56.004 119.282 56.1726 119.341 56.2911C119.4 56.4096 119.489 56.4894 119.607 56.5304C119.726 56.5714 119.867 56.5919 120.031 56.5919C120.15 56.5919 120.259 56.5851 120.359 56.5714C120.46 56.5577 120.544 56.5441 120.612 56.5304L120.619 57.8839C120.469 57.934 120.298 57.9751 120.106 58.007C119.92 58.0389 119.708 58.0548 119.471 58.0548C119.065 58.0548 118.71 57.9865 118.404 57.8497C118.099 57.7085 117.862 57.4829 117.693 57.173C117.525 56.8585 117.44 56.4438 117.44 55.9288V48.7032Z" fill="black"/>
<path d="M133.4 9.91809C131.194 9.91809 129.4 11.7125 129.4 13.9181V16.3181H128.6C128.176 16.3181 127.769 16.4867 127.469 16.7867C127.169 17.0868 127 17.4937 127 17.9181V24.3181C127 24.7424 127.169 25.1494 127.469 25.4495C127.769 25.7495 128.176 25.9181 128.6 25.9181H138.2C138.624 25.9181 139.031 25.7495 139.331 25.4495C139.631 25.1494 139.8 24.7424 139.8 24.3181V17.9181C139.8 17.4937 139.631 17.0868 139.331 16.7867C139.031 16.4867 138.624 16.3181 138.2 16.3181H137.4V13.9181C137.4 11.7125 135.606 9.91809 133.4 9.91809ZM131 13.9181C131 12.5949 132.077 11.5181 133.4 11.5181C134.723 11.5181 135.8 12.5949 135.8 13.9181V16.3181H131V13.9181ZM134.2 22.4965V24.3181H132.6V22.4965C132.32 22.3363 132.096 22.0952 131.956 21.8048C131.816 21.5144 131.767 21.1884 131.817 20.8699C131.866 20.5514 132.01 20.2552 132.231 20.0204C132.452 19.7857 132.739 19.6234 133.054 19.5549C133.288 19.5032 133.53 19.5046 133.763 19.5591C133.997 19.6136 134.215 19.7198 134.402 19.8698C134.588 20.0199 134.739 20.2099 134.843 20.4259C134.946 20.642 135 20.8785 135 21.1181C135 21.3979 134.925 21.6726 134.785 21.9146C134.644 22.1566 134.443 22.3573 134.2 22.4965V22.4965Z" fill="#505050"/>
</svg>
