<svg width="148" height="74" viewBox="0 0 148 74" fill="none" xmlns="http://www.w3.org/2000/svg">
<rect x="0.5" y="1.41809" width="147" height="72" rx="9.5" fill="#1DBC19" fill-opacity="0.04" stroke="#1DBC19" stroke-miterlimit="5.75877"/>
<path d="M134.041 16.416C134.041 17.5436 133.127 18.4577 132 18.4577C130.872 18.4577 129.958 17.5436 129.958 16.416C129.958 15.2885 130.872 14.3744 132 14.3744C133.127 14.3744 134.041 15.2885 134.041 16.416Z" fill="#505050"/>
<path d="M139.422 9.49634C139.048 9.12341 138.552 8.91809 138.025 8.91809H125.975C125.448 8.91809 124.952 9.12341 124.578 9.49658C124.205 9.86987 124 10.3657 124 10.8931V12.9015C124 13.4288 124.205 13.9247 124.578 14.2982C124.952 14.6711 125.448 14.8763 125.975 14.8763H126.075V11.4285C126.075 11.1697 126.285 10.9597 126.544 10.9597H137.456C137.715 10.9597 137.925 11.1697 137.925 11.4285V14.8763H138.025C138.552 14.8763 139.048 14.671 139.422 14.2979C139.795 13.9247 140 13.4287 140 12.9015V10.8931C140 10.3657 139.795 9.86987 139.422 9.49634V9.49634Z" fill="#505050"/>
<path d="M127.013 23.4451C127.013 23.8388 127.166 24.2087 127.444 24.4863C127.722 24.7647 128.092 24.918 128.486 24.918H135.515C135.909 24.918 136.278 24.7647 136.556 24.4868C136.834 24.2087 136.988 23.8388 136.988 23.4451V11.8972H127.013V23.4451ZM132 13.4368C133.643 13.4368 134.979 14.7733 134.979 16.416C134.979 18.0587 133.643 19.3951 132 19.3951C130.358 19.3951 129.021 18.0587 129.021 16.416C129.021 14.7733 130.358 13.4368 132 13.4368ZM129.49 21.4702H134.511C134.77 21.4702 134.979 21.68 134.979 21.9389C134.979 22.1977 134.77 22.4077 134.511 22.4077H129.49C129.231 22.4077 129.021 22.1977 129.021 21.9389C129.021 21.68 129.231 21.4702 129.49 21.4702V21.4702Z" fill="#505050"/>
<path d="M63.3145 22.6603V36.9181H60.7266V25.6779L57.2988 26.8107V24.7208L63.0215 22.6603H63.3145ZM70.6582 30.3751L68.5977 29.8771L69.3887 22.6993H77.2109V24.838H71.5273L71.1562 28.1583C71.3581 28.0346 71.651 27.9109 72.0352 27.7872C72.4258 27.657 72.8652 27.5919 73.3535 27.5919C74.0306 27.5919 74.6361 27.7026 75.1699 27.924C75.7038 28.1388 76.1562 28.4513 76.5273 28.8615C76.9049 29.2716 77.1882 29.7729 77.377 30.3654C77.5723 30.9513 77.6699 31.6154 77.6699 32.3575C77.6699 33.0086 77.5723 33.6206 77.377 34.1935C77.1882 34.7599 76.8984 35.2644 76.5078 35.7072C76.1172 36.1434 75.6257 36.4884 75.0332 36.7423C74.4408 36.9897 73.7441 37.1134 72.9434 37.1134C72.3379 37.1134 71.7552 37.0255 71.1953 36.8497C70.6419 36.6674 70.1439 36.4038 69.7012 36.0587C69.2585 35.7072 68.9036 35.2775 68.6367 34.7697C68.3763 34.2618 68.2331 33.6792 68.207 33.0216H70.7559C70.8014 33.4578 70.9186 33.8289 71.1074 34.1349C71.2962 34.4409 71.5436 34.6753 71.8496 34.838C72.1621 35.0008 72.5234 35.0822 72.9336 35.0822C73.3047 35.0822 73.6237 35.0138 73.8906 34.8771C74.1641 34.7338 74.3887 34.5353 74.5645 34.2814C74.7402 34.0275 74.8704 33.728 74.9551 33.3829C75.0397 33.0379 75.082 32.6603 75.082 32.2501C75.082 31.853 75.0332 31.4917 74.9355 31.1661C74.8379 30.8341 74.6882 30.5476 74.4863 30.3068C74.2845 30.0659 74.0306 29.8803 73.7246 29.7501C73.4251 29.6199 73.0736 29.5548 72.6699 29.5548C72.1296 29.5548 71.7129 29.6362 71.4199 29.799C71.1335 29.9617 70.8796 30.1538 70.6582 30.3751ZM88.9395 28.588V30.9806C88.9395 32.0743 88.8288 33.0086 88.6074 33.7833C88.3861 34.5581 88.0671 35.1928 87.6504 35.6876C87.2337 36.1759 86.7357 36.5372 86.1562 36.7716C85.5768 36.9995 84.9323 37.1134 84.2227 37.1134C83.6562 37.1134 83.1289 37.0418 82.6406 36.8986C82.1523 36.7488 81.7129 36.521 81.3223 36.215C80.9382 35.9025 80.6061 35.5053 80.3262 35.0236C80.0527 34.5418 79.8411 33.9656 79.6914 33.295C79.5482 32.6245 79.4766 31.853 79.4766 30.9806V28.588C79.4766 27.4943 79.5872 26.5633 79.8086 25.795C80.0365 25.0268 80.3587 24.3986 80.7754 23.9103C81.1921 23.422 81.6901 23.0672 82.2695 22.8458C82.849 22.618 83.4935 22.504 84.2031 22.504C84.776 22.504 85.3034 22.5756 85.7852 22.7189C86.2734 22.8621 86.7096 23.0867 87.0938 23.3927C87.4844 23.6922 87.8164 24.0828 88.0898 24.5646C88.3633 25.0398 88.5716 25.6128 88.7148 26.2833C88.8646 26.9474 88.9395 27.7156 88.9395 28.588ZM86.3613 31.3322V28.2267C86.3613 27.6798 86.3288 27.2045 86.2637 26.8009C86.2051 26.3907 86.1172 26.0424 86 25.756C85.8828 25.4695 85.7363 25.2384 85.5605 25.0626C85.3848 24.8803 85.1829 24.7469 84.9551 24.6622C84.7272 24.5776 84.4766 24.5353 84.2031 24.5353C83.8646 24.5353 83.5618 24.6036 83.2949 24.7404C83.028 24.8706 82.8034 25.0789 82.6211 25.3654C82.4388 25.6518 82.2988 26.0327 82.2012 26.5079C82.11 26.9767 82.0645 27.5496 82.0645 28.2267V31.3322C82.0645 31.879 82.0938 32.3575 82.1523 32.7677C82.2174 33.1779 82.3086 33.5294 82.4258 33.8224C82.5495 34.1154 82.696 34.3562 82.8652 34.545C83.041 34.7273 83.2428 34.8641 83.4707 34.9552C83.6986 35.0398 83.9492 35.0822 84.2227 35.0822C84.5677 35.0822 84.8704 35.0138 85.1309 34.8771C85.3978 34.7404 85.6224 34.5255 85.8047 34.2325C85.987 33.9331 86.1237 33.5457 86.2148 33.0704C86.3125 32.5887 86.3613 32.0092 86.3613 31.3322ZM100.365 28.588V30.9806C100.365 32.0743 100.255 33.0086 100.033 33.7833C99.8118 34.5581 99.4928 35.1928 99.0762 35.6876C98.6595 36.1759 98.1615 36.5372 97.582 36.7716C97.0026 36.9995 96.3581 37.1134 95.6484 37.1134C95.082 37.1134 94.5547 37.0418 94.0664 36.8986C93.5781 36.7488 93.1387 36.521 92.748 36.215C92.3639 35.9025 92.0319 35.5053 91.752 35.0236C91.4785 34.5418 91.2669 33.9656 91.1172 33.295C90.974 32.6245 90.9023 31.853 90.9023 30.9806V28.588C90.9023 27.4943 91.013 26.5633 91.2344 25.795C91.4622 25.0268 91.7845 24.3986 92.2012 23.9103C92.6178 23.422 93.1159 23.0672 93.6953 22.8458C94.2747 22.618 94.9193 22.504 95.6289 22.504C96.2018 22.504 96.7292 22.5756 97.2109 22.7189C97.6992 22.8621 98.1354 23.0867 98.5195 23.3927C98.9102 23.6922 99.2422 24.0828 99.5156 24.5646C99.7891 25.0398 99.9974 25.6128 100.141 26.2833C100.29 26.9474 100.365 27.7156 100.365 28.588ZM97.7871 31.3322V28.2267C97.7871 27.6798 97.7546 27.2045 97.6895 26.8009C97.6309 26.3907 97.543 26.0424 97.4258 25.756C97.3086 25.4695 97.1621 25.2384 96.9863 25.0626C96.8105 24.8803 96.6087 24.7469 96.3809 24.6622C96.153 24.5776 95.9023 24.5353 95.6289 24.5353C95.2904 24.5353 94.9876 24.6036 94.7207 24.7404C94.4538 24.8706 94.2292 25.0789 94.0469 25.3654C93.8646 25.6518 93.7246 26.0327 93.627 26.5079C93.5358 26.9767 93.4902 27.5496 93.4902 28.2267V31.3322C93.4902 31.879 93.5195 32.3575 93.5781 32.7677C93.6432 33.1779 93.7344 33.5294 93.8516 33.8224C93.9753 34.1154 94.1217 34.3562 94.291 34.545C94.4668 34.7273 94.6686 34.8641 94.8965 34.9552C95.1243 35.0398 95.375 35.0822 95.6484 35.0822C95.9935 35.0822 96.2962 35.0138 96.5566 34.8771C96.8236 34.7404 97.0482 34.5255 97.2305 34.2325C97.4128 33.9331 97.5495 33.5457 97.6406 33.0704C97.7383 32.5887 97.7871 32.0092 97.7871 31.3322Z" fill="#1DBC19"/>
<path d="M51.0386 26.5849C50.6702 25.7982 49.8809 25.2515 48.96 25.2515H46V23.9182H53.8933V25.2515H51.749C52.0647 25.6382 52.3015 26.0915 52.4396 26.5849H53.8933V27.9182H52.5646C52.4002 29.7849 50.8478 31.2515 48.96 31.2515H48.4798L52.9067 35.9182H51.0846L46.6578 31.2515V29.9182H48.96C50.1177 29.9182 51.078 29.0515 51.2359 27.9182H46V26.5849H51.0386Z" fill="#1DBC19"/>
<path d="M21.3975 56.0109L23.3799 47.965H24.4531L24.5215 49.6603L22.4023 57.9181H21.2676L21.3975 56.0109ZM20.1465 47.965L21.7734 55.9835V57.9181H20.5361L18.2803 47.965H20.1465ZM26.5791 55.9493L28.1787 47.965H30.0518L27.7959 57.9181H26.5586L26.5791 55.9493ZM24.9658 47.965L26.9482 56.0382L27.0645 57.9181H25.9297L23.8174 49.6534L23.8994 47.965H24.9658ZM33.0186 50.5216V57.9181H31.207V50.5216H33.0186ZM31.084 48.587C31.084 48.3182 31.1751 48.0948 31.3574 47.9171C31.5443 47.7394 31.7949 47.6505 32.1094 47.6505C32.4238 47.6505 32.6722 47.7394 32.8545 47.9171C33.0413 48.0948 33.1348 48.3182 33.1348 48.587C33.1348 48.8514 33.0413 49.0724 32.8545 49.2501C32.6722 49.4279 32.4238 49.5167 32.1094 49.5167C31.7949 49.5167 31.5443 49.4279 31.3574 49.2501C31.1751 49.0724 31.084 48.8514 31.084 48.587ZM38.2412 50.5216V51.8204H34.0029V50.5216H38.2412ZM35.1377 48.7032H36.9492V55.7853C36.9492 56.004 36.9788 56.1726 37.0381 56.2911C37.0973 56.4096 37.1862 56.4894 37.3047 56.5304C37.4232 56.5714 37.5645 56.5919 37.7285 56.5919C37.847 56.5919 37.9564 56.5851 38.0566 56.5714C38.1569 56.5577 38.2412 56.5441 38.3096 56.5304L38.3164 57.8839C38.166 57.934 37.9951 57.9751 37.8037 58.007C37.6169 58.0389 37.4049 58.0548 37.168 58.0548C36.7624 58.0548 36.4069 57.9865 36.1016 57.8497C35.7962 57.7085 35.5592 57.4829 35.3906 57.173C35.222 56.8585 35.1377 56.4438 35.1377 55.9288V48.7032ZM41.2148 47.4181V57.9181H39.4033V47.4181H41.2148ZM40.9277 53.9532H40.3945C40.3945 53.4383 40.4629 52.9643 40.5996 52.5314C40.7363 52.0984 40.93 51.7225 41.1807 51.4034C41.4313 51.0799 41.7298 50.8292 42.0762 50.6515C42.4271 50.4738 42.8145 50.3849 43.2383 50.3849C43.6029 50.3849 43.9333 50.4373 44.2295 50.5421C44.5303 50.6424 44.7878 50.8042 45.002 51.0275C45.2161 51.2508 45.3802 51.5424 45.4941 51.9025C45.6126 52.2579 45.6719 52.6909 45.6719 53.2013V57.9181H43.8535V53.1876C43.8535 52.8458 43.8034 52.5769 43.7031 52.381C43.6029 52.1805 43.4593 52.0369 43.2725 51.9503C43.0902 51.8637 42.8646 51.8204 42.5957 51.8204C42.304 51.8204 42.0534 51.8774 41.8438 51.9913C41.6341 52.1007 41.4609 52.2534 41.3242 52.4493C41.1921 52.6453 41.0918 52.8709 41.0234 53.1261C40.9596 53.3813 40.9277 53.657 40.9277 53.9532ZM51.7012 56.3458V47.4181H53.5195V57.9181H51.8789L51.7012 56.3458ZM46.9502 54.3087V54.1652C46.9502 53.6001 47.014 53.0874 47.1416 52.6271C47.2738 52.1622 47.4652 51.7635 47.7158 51.4308C47.9665 51.0981 48.2695 50.8406 48.625 50.6583C48.985 50.476 49.3929 50.3849 49.8486 50.3849C50.2907 50.3849 50.6758 50.4738 51.0039 50.6515C51.3366 50.8292 51.6191 51.0822 51.8516 51.4103C52.0885 51.7384 52.2777 52.1281 52.4189 52.5792C52.5602 53.0258 52.6628 53.518 52.7266 54.0558V54.4454C52.6628 54.9695 52.5602 55.4503 52.4189 55.8878C52.2777 56.3253 52.0885 56.7081 51.8516 57.0363C51.6191 57.3598 51.3366 57.6105 51.0039 57.7882C50.6712 57.9659 50.2816 58.0548 49.835 58.0548C49.3838 58.0548 48.9782 57.9614 48.6182 57.7745C48.2627 57.5877 47.9596 57.3256 47.709 56.9884C47.4629 56.6512 47.2738 56.2547 47.1416 55.799C47.014 55.3432 46.9502 54.8465 46.9502 54.3087ZM48.7617 54.1652V54.3087C48.7617 54.6277 48.7891 54.9262 48.8438 55.2042C48.8984 55.4822 48.9873 55.7283 49.1104 55.9425C49.2334 56.1521 49.3906 56.3162 49.582 56.4347C49.778 56.5532 50.015 56.6124 50.293 56.6124C50.6484 56.6124 50.9401 56.535 51.168 56.38C51.4004 56.2205 51.5804 56.004 51.708 55.7306C51.8356 55.4526 51.9176 55.1404 51.9541 54.7941V53.7208C51.9359 53.4474 51.888 53.1945 51.8105 52.962C51.7376 52.7296 51.6328 52.5291 51.4961 52.3605C51.3639 52.1919 51.1999 52.0597 51.0039 51.964C50.8079 51.8683 50.5755 51.8204 50.3066 51.8204C50.0286 51.8204 49.7917 51.882 49.5957 52.005C49.3997 52.1235 49.2402 52.2898 49.1172 52.504C48.9941 52.7182 48.903 52.9666 48.8438 53.2491C48.7891 53.5317 48.7617 53.837 48.7617 54.1652ZM56.958 52.0323V57.9181H55.1533V50.5216H56.8623L56.958 52.0323ZM59.207 50.4738L59.1797 52.1554C59.0794 52.1372 58.9655 52.1235 58.8379 52.1144C58.7148 52.1053 58.5986 52.1007 58.4893 52.1007C58.2113 52.1007 57.9674 52.1394 57.7578 52.2169C57.5482 52.2898 57.3727 52.3969 57.2314 52.5382C57.0947 52.6795 56.9899 52.8527 56.917 53.0577C56.8441 53.2583 56.8031 53.4861 56.7939 53.7413L56.4043 53.6935C56.4043 53.2241 56.4521 52.7889 56.5479 52.3878C56.6436 51.9868 56.7826 51.6359 56.9648 51.3351C57.1471 51.0343 57.375 50.8019 57.6484 50.6378C57.9264 50.4692 58.2454 50.3849 58.6055 50.3849C58.7057 50.3849 58.8128 50.394 58.9268 50.4122C59.0452 50.4259 59.1387 50.4464 59.207 50.4738ZM64.04 56.3458V52.9347C64.04 52.684 63.9967 52.4676 63.9102 52.2853C63.8236 52.103 63.6914 51.9617 63.5137 51.8615C63.3359 51.7612 63.1104 51.7111 62.8369 51.7111C62.5954 51.7111 62.3835 51.7521 62.2012 51.8341C62.0234 51.9161 61.8867 52.0323 61.791 52.1827C61.6953 52.3286 61.6475 52.4972 61.6475 52.6886H59.8359C59.8359 52.3833 59.9089 52.0939 60.0547 51.8204C60.2005 51.5424 60.4079 51.2963 60.6768 51.0822C60.9502 50.8634 61.276 50.6925 61.6543 50.5695C62.0371 50.4464 62.4655 50.3849 62.9395 50.3849C63.5 50.3849 63.999 50.4806 64.4365 50.672C64.8786 50.8588 65.2249 51.1414 65.4756 51.5197C65.7308 51.8979 65.8584 52.3741 65.8584 52.9484V56.1749C65.8584 56.5441 65.8812 56.8608 65.9268 57.1251C65.9769 57.3849 66.0498 57.6105 66.1455 57.8019V57.9181H64.3066C64.2201 57.7312 64.154 57.4943 64.1084 57.2072C64.0628 56.9155 64.04 56.6284 64.04 56.3458ZM64.293 53.4132L64.3066 54.4865H63.165C62.8825 54.4865 62.6341 54.5161 62.4199 54.5753C62.2057 54.63 62.0303 54.712 61.8936 54.8214C61.7568 54.9262 61.6543 55.0538 61.5859 55.2042C61.5176 55.3501 61.4834 55.5164 61.4834 55.7032C61.4834 55.8855 61.5244 56.0496 61.6064 56.1954C61.693 56.3413 61.8161 56.4575 61.9756 56.5441C62.1396 56.6261 62.3311 56.6671 62.5498 56.6671C62.8688 56.6671 63.1468 56.6033 63.3838 56.4757C63.6208 56.3435 63.8053 56.184 63.9375 55.9972C64.0697 55.8103 64.1403 55.6326 64.1494 55.464L64.6689 56.2433C64.6051 56.4301 64.5094 56.6284 64.3818 56.838C64.2542 57.0476 64.0902 57.2436 63.8896 57.4259C63.6891 57.6082 63.4476 57.7586 63.165 57.8771C62.8825 57.9956 62.5544 58.0548 62.1807 58.0548C61.7021 58.0548 61.2738 57.9591 60.8955 57.7677C60.5173 57.5763 60.2188 57.3142 60 56.9816C59.7812 56.6489 59.6719 56.2706 59.6719 55.8468C59.6719 55.4549 59.7448 55.1085 59.8906 54.8077C60.0365 54.507 60.2529 54.254 60.54 54.049C60.8271 53.8393 61.1826 53.6821 61.6064 53.5773C62.0348 53.4679 62.5247 53.4132 63.0762 53.4132H64.293ZM69.543 56.1407L71.1631 50.5216H72.3115L71.9697 52.463L70.3359 57.9181H69.3447L69.543 56.1407ZM68.6475 50.5216L69.8643 56.1544L69.9736 57.9181H68.832L66.8906 50.5216H68.6475ZM73.8154 56.0724L75.0049 50.5216H76.7549L74.8271 57.9181H73.6855L73.8154 56.0724ZM72.4893 50.5216L74.0957 56.0861L74.3076 57.9181H73.3164L71.6689 52.463L71.334 50.5216H72.4893ZM85.4023 49.4757L82.5654 57.9181H80.5762L84.2949 47.965H85.5664L85.4023 49.4757ZM87.7744 57.9181L84.9238 49.4757L84.7529 47.965H86.0312L89.7705 57.9181H87.7744ZM87.6445 54.2198V55.7032H82.3057V54.2198H87.6445ZM92.2793 52.0392V57.9181H90.4746V50.5216H92.1768L92.2793 52.0392ZM92.0127 53.9532H91.459C91.459 53.4383 91.5205 52.9643 91.6436 52.5314C91.7712 52.0984 91.958 51.7225 92.2041 51.4034C92.4502 51.0799 92.7533 50.8292 93.1133 50.6515C93.4779 50.4738 93.8994 50.3849 94.3779 50.3849C94.7106 50.3849 95.016 50.435 95.2939 50.5353C95.5719 50.631 95.8112 50.7837 96.0117 50.9933C96.2168 51.1984 96.374 51.4672 96.4834 51.7999C96.5928 52.1281 96.6475 52.5223 96.6475 52.9825V57.9181H94.8428V53.1671C94.8428 52.8208 94.7926 52.5496 94.6924 52.3536C94.5967 52.1577 94.4577 52.021 94.2754 51.9435C94.0931 51.8615 93.8743 51.8204 93.6191 51.8204C93.3366 51.8204 93.0928 51.8774 92.8877 51.9913C92.6872 52.1007 92.5208 52.2534 92.3887 52.4493C92.2611 52.6453 92.1654 52.8709 92.1016 53.1261C92.0423 53.3813 92.0127 53.657 92.0127 53.9532ZM96.5107 53.6183L95.7656 53.755C95.7702 53.2902 95.834 52.8549 95.957 52.4493C96.0801 52.0392 96.2601 51.6814 96.4971 51.3761C96.7386 51.0662 97.0371 50.8247 97.3926 50.6515C97.7526 50.4738 98.1673 50.3849 98.6367 50.3849C99.0013 50.3849 99.3294 50.4373 99.6211 50.5421C99.9173 50.6424 100.17 50.8042 100.38 51.0275C100.59 51.2462 100.749 51.531 100.858 51.882C100.972 52.2329 101.029 52.6613 101.029 53.1671V57.9181H99.2109V53.1603C99.2109 52.8003 99.1608 52.5245 99.0605 52.3331C98.9648 52.1417 98.8258 52.0096 98.6436 51.9366C98.4613 51.8592 98.2471 51.8204 98.001 51.8204C97.7503 51.8204 97.5316 51.8683 97.3447 51.964C97.1624 52.0551 97.0075 52.1827 96.8799 52.3468C96.7568 52.5109 96.6634 52.7023 96.5996 52.921C96.5404 53.1352 96.5107 53.3676 96.5107 53.6183ZM102.328 54.295V54.1515C102.328 53.6092 102.406 53.1101 102.561 52.6544C102.715 52.1941 102.941 51.7954 103.237 51.4581C103.534 51.1209 103.896 50.8588 104.324 50.672C104.753 50.4806 105.24 50.3849 105.787 50.3849C106.343 50.3849 106.835 50.4806 107.264 50.672C107.697 50.8588 108.061 51.1209 108.357 51.4581C108.654 51.7954 108.879 52.1941 109.034 52.6544C109.189 53.1101 109.267 53.6092 109.267 54.1515V54.295C109.267 54.8328 109.189 55.3318 109.034 55.7921C108.879 56.2478 108.654 56.6466 108.357 56.9884C108.061 57.3256 107.699 57.5877 107.271 57.7745C106.842 57.9614 106.352 58.0548 105.801 58.0548C105.254 58.0548 104.764 57.9614 104.331 57.7745C103.898 57.5877 103.534 57.3256 103.237 56.9884C102.941 56.6466 102.715 56.2478 102.561 55.7921C102.406 55.3318 102.328 54.8328 102.328 54.295ZM104.133 54.1515V54.295C104.133 54.6186 104.165 54.9217 104.229 55.2042C104.292 55.4868 104.39 55.7351 104.522 55.9493C104.655 56.1635 104.826 56.3322 105.035 56.4552C105.249 56.5737 105.505 56.6329 105.801 56.6329C106.092 56.6329 106.343 56.5737 106.553 56.4552C106.762 56.3322 106.933 56.1635 107.065 55.9493C107.202 55.7351 107.302 55.4868 107.366 55.2042C107.43 54.9217 107.462 54.6186 107.462 54.295V54.1515C107.462 53.8325 107.43 53.534 107.366 53.256C107.302 52.9734 107.202 52.7251 107.065 52.5109C106.933 52.2921 106.76 52.1212 106.546 51.9982C106.336 51.8706 106.083 51.8068 105.787 51.8068C105.495 51.8068 105.245 51.8706 105.035 51.9982C104.826 52.1212 104.655 52.2921 104.522 52.5109C104.39 52.7251 104.292 52.9734 104.229 53.256C104.165 53.534 104.133 53.8325 104.133 54.1515ZM114.981 56.1613V50.5216H116.8V57.9181H115.091L114.981 56.1613ZM115.214 54.63L115.774 54.6163C115.774 55.1131 115.72 55.5711 115.61 55.9904C115.501 56.4096 115.33 56.7742 115.098 57.0841C114.87 57.3894 114.58 57.6287 114.229 57.8019C113.879 57.9705 113.464 58.0548 112.985 58.0548C112.621 58.0548 112.288 58.0047 111.987 57.9044C111.687 57.7996 111.427 57.6378 111.208 57.4191C110.994 57.1958 110.827 56.9109 110.709 56.5646C110.59 56.2137 110.531 55.7921 110.531 55.2999V50.5216H112.336V55.3136C112.336 55.5597 112.363 55.7648 112.418 55.9288C112.477 56.0929 112.557 56.2273 112.657 56.3322C112.762 56.4324 112.883 56.5053 113.02 56.5509C113.161 56.5919 113.311 56.6124 113.471 56.6124C113.908 56.6124 114.252 56.5258 114.503 56.3527C114.758 56.1749 114.94 55.9379 115.05 55.6417C115.159 55.3409 115.214 55.0037 115.214 54.63ZM120.17 52.1007V57.9181H118.365V50.5216H120.061L120.17 52.1007ZM119.883 53.9532H119.35C119.354 53.4155 119.427 52.9279 119.568 52.4904C119.71 52.0529 119.908 51.6769 120.163 51.3624C120.423 51.048 120.73 50.8064 121.086 50.6378C121.441 50.4692 121.838 50.3849 122.275 50.3849C122.631 50.3849 122.952 50.435 123.239 50.5353C123.526 50.6355 123.772 50.795 123.978 51.0138C124.187 51.2325 124.347 51.5197 124.456 51.8751C124.57 52.226 124.627 52.659 124.627 53.174V57.9181H122.809V53.1603C122.809 52.823 122.758 52.5564 122.658 52.3605C122.562 52.1645 122.421 52.0255 122.234 51.9435C122.052 51.8615 121.826 51.8204 121.558 51.8204C121.28 51.8204 121.036 51.8774 120.826 51.9913C120.621 52.1007 120.448 52.2534 120.307 52.4493C120.17 52.6453 120.065 52.8709 119.992 53.1261C119.919 53.3813 119.883 53.657 119.883 53.9532ZM129.72 50.5216V51.8204H125.481V50.5216H129.72ZM126.616 48.7032H128.428V55.7853C128.428 56.004 128.457 56.1726 128.517 56.2911C128.576 56.4096 128.665 56.4894 128.783 56.5304C128.902 56.5714 129.043 56.5919 129.207 56.5919C129.326 56.5919 129.435 56.5851 129.535 56.5714C129.635 56.5577 129.72 56.5441 129.788 56.5304L129.795 57.8839C129.645 57.934 129.474 57.9751 129.282 58.007C129.095 58.0389 128.883 58.0548 128.646 58.0548C128.241 58.0548 127.885 57.9865 127.58 57.8497C127.275 57.7085 127.038 57.4829 126.869 57.173C126.701 56.8585 126.616 56.4438 126.616 55.9288V48.7032Z" fill="black"/>
</svg>
